<?xml version="1.0" standalone="no"?>
<!DOCTYPE svg PUBLIC "-//W3C//DTD SVG 20010904//EN"
 "http://www.w3.org/TR/2001/REC-SVG-20010904/DTD/svg10.dtd">
<svg version="1.0" xmlns="http://www.w3.org/2000/svg"
 width="1530.000000pt" height="1530.000000pt" viewBox="0 0 1530.000000 1530.000000"
 preserveAspectRatio="xMidYMid meet">
<metadata>
Created by potrace 1.11, written by Peter Selinger 2001-2013
</metadata>
<g transform="translate(0.000000,1530.000000) scale(0.100000,-0.100000)"
fill="#000000" stroke="none">
<path d="M4900 15294 c-14 -2 -59 -9 -100 -15 -431 -62 -838 -290 -1125 -630
-54 -65 -139 -181 -149 -205 -1 -1 -46 13 -101 31 -178 59 -343 87 -540 89
-612 9 -1188 -301 -1535 -824 -85 -129 -212 -414 -235 -528 -2 -9 -10 -46 -18
-82 -13 -57 -20 -100 -33 -200 -1 -13 -7 -26 -12 -28 -21 -7 -150 -96 -214
-149 -241 -197 -428 -505 -492 -811 -69 -327 -18 -698 135 -982 126 -232 349
-467 549 -577 223 -123 389 -176 620 -199 78 -7 5303 -7 5375 1 96 10 185 24
196 31 3 2 19 6 36 8 44 8 176 54 247 86 290 130 554 385 698 675 25 50 51
108 58 130 7 22 16 45 20 50 14 20 56 204 68 294 9 75 9 300 -1 379 -8 65 -54
246 -82 321 -15 41 -75 166 -106 221 -74 130 -203 280 -347 403 -50 43 -188
130 -272 172 -87 44 -287 111 -357 121 -26 3 -51 8 -54 10 -8 5 -178 18 -227
17 l-43 0 6 36 c3 20 7 46 9 58 27 137 27 377 1 553 -42 289 -189 630 -360
839 -191 234 -365 378 -607 505 -162 85 -384 159 -543 182 -27 3 -59 9 -70 11
-26 6 -362 11 -395 7z"/>
<path d="M9317 10114 c-1 -1 -40 -5 -87 -8 -111 -8 -289 -28 -356 -40 -10 -2
-39 -7 -64 -11 -64 -10 -61 -10 -210 -44 -628 -144 -1242 -459 -1735 -891 -71
-63 -320 -313 -386 -389 -35 -41 -99 -119 -141 -175 -43 -56 -81 -106 -85
-111 -21 -27 -134 -198 -169 -255 -188 -313 -350 -683 -434 -995 -12 -44 -23
-85 -25 -91 -2 -7 -43 0 -122 23 -65 19 -136 38 -158 43 -22 4 -51 11 -65 15
-14 3 -63 12 -109 20 -46 8 -91 17 -100 19 -93 27 -659 27 -751 1 -8 -3 -35
-7 -60 -10 -256 -30 -632 -153 -900 -293 -159 -83 -425 -256 -484 -314 -7 -7
-33 -29 -57 -48 -81 -64 -315 -304 -398 -409 -316 -399 -520 -856 -599 -1341
-27 -165 -31 -200 -38 -365 -3 -77 -7 -145 -9 -151 -2 -6 -22 -14 -45 -18 -49
-8 -214 -60 -285 -89 -343 -145 -641 -395 -840 -707 -237 -370 -335 -836 -265
-1260 5 -30 12 -71 15 -90 28 -168 129 -420 235 -591 120 -192 269 -355 451
-495 252 -195 577 -326 894 -361 91 -10 11309 -10 11395 0 100 11 127 17 230
42 552 139 1005 522 1235 1046 33 75 97 272 110 336 53 269 53 510 0 768 -24
117 -90 306 -147 419 -44 88 -155 272 -183 302 -5 6 -28 33 -49 60 -100 124
-309 310 -422 376 -22 12 -41 25 -44 29 -9 12 -202 106 -285 139 -73 29 -180
62 -245 76 -165 34 -225 42 -337 45 -35 1 -63 6 -63 11 0 5 11 33 24 61 141
309 245 624 301 912 19 97 45 259 50 315 4 35 8 67 10 70 1 3 6 61 10 130 16
258 8 554 -20 760 -4 25 -8 63 -11 85 -2 22 -6 51 -9 65 -2 14 -7 41 -10 60
-49 295 -153 636 -287 938 -54 124 -136 290 -148 302 -3 3 -14 22 -25 43 -88
170 -323 501 -484 681 -76 86 -295 304 -368 366 -41 36 -81 70 -87 75 -74 66
-276 211 -436 314 -227 145 -574 309 -825 391 -55 17 -107 34 -115 37 -42 16
-248 71 -287 78 -19 3 -38 7 -42 9 -3 2 -23 7 -43 10 -21 3 -57 10 -80 15 -24
5 -65 12 -92 16 -27 3 -52 8 -55 9 -3 2 -37 7 -74 11 -37 3 -76 8 -85 10 -66
12 -614 28 -625 19z"/>
</g>
</svg>
